<svg width="200" height="500" viewBox="0 0 166 490" fill="none" xmlns="http://www.w3.org/2000/svg">
<path d="M110.998 478L98.8017 477.999L93 428L111 428.001L110.998 478Z" fill="#D6B1B6"/>
<path d="M114 474.001L89.5699 474H89.5689C85.4399 474 81.48 475.633 78.5603 478.539C75.6407 481.444 74.0003 485.386 74 489.495V489.999L113.999 490L114 474.001Z" fill="#2F2E41"/>
<path d="M64.998 478L52.8017 477.999L47 428L65 428.001L64.998 478Z" fill="#D6B1B6"/>
<path d="M68 474.001L42.9591 474H42.9581C38.7258 474 34.667 475.633 31.6743 478.539C28.6817 481.444 27.0003 485.386 27 489.495V489.999L67.9992 490L68 474.001Z" fill="#2F2E41"/>
<path d="M149.311 283.697C148.357 282.608 147.638 281.309 147.206 279.892C146.773 278.475 146.638 276.974 146.808 275.494C146.979 274.015 147.452 272.594 148.194 271.331C148.936 270.067 149.929 268.993 151.103 268.183L143 233L159.64 239.319L164.783 271.76C165.929 273.952 166.282 276.516 165.773 278.966C165.264 281.415 163.929 283.581 162.022 285.053C160.115 286.524 157.768 287.199 155.425 286.949C153.083 286.699 150.907 285.542 149.311 283.697V283.697Z" fill="#D6B1B6"/>
<path d="M16.6886 280.697C17.6431 279.608 18.3618 278.309 18.7943 276.892C19.2267 275.475 19.3623 273.974 19.1915 272.494C19.0207 271.015 18.5477 269.594 17.8057 268.331C17.0637 267.067 16.0709 265.993 14.8971 265.183L23 230L6.36046 236.319L1.21686 268.76C0.0705686 270.952 -0.281527 273.516 0.227297 275.966C0.736121 278.415 2.07052 280.581 3.97762 282.053C5.88471 283.524 8.23202 284.199 10.5747 283.949C12.9175 283.699 15.0928 282.542 16.6886 280.697V280.697Z" fill="#D6B1B6"/>
<path d="M133 258.967L115.734 465.375L90.4703 463.025L80.3593 303.5L71.3589 366.665L69.5564 467L46.6948 465.445L34 357.505L37.1143 252.969L123.904 244L133 258.967Z" fill="#2F2E41"/>
<path d="M85.5 72C71.4167 72 60 59.9117 60 45C60 30.0883 71.4167 18 85.5 18C99.5833 18 111 30.0883 111 45C111 59.9117 99.5833 72 85.5 72Z" fill="#D6B1B6"/>
<path d="M94.0112 23.9381C94.0112 23.9381 81.8718 27.2745 75.5853 28.6091C69.2989 29.9437 69.9492 26.1624 69.9492 26.1624C69.9492 26.1624 61.7117 27.2745 62.1453 26.3848C62.5788 25.4951 58.6769 20.8241 63.2292 15.4857C67.7814 10.1474 66.4808 6.14367 66.4808 6.14367H70.3827L71.4666 4.58664H77.5364C77.5364 4.58664 84.247 -1.45128 96.1697 0.32811C108.092 2.1075 122.192 6.81094 123.493 14.1512C123.669 15.1468 123.901 16.2529 124.171 17.4211C127.431 31.5441 120.504 44.7583 113.32 57.2603C111.554 60.3328 103.013 67.0327 103.231 62.436C103.45 57.8392 110.92 47.5157 105.717 46.8484C100.515 46.1811 91.6267 32.6129 94.0112 23.9381Z" fill="#2F2E41"/>
<path d="M111.886 81H66.2609L34 256.156C34 256.156 62.1257 258.628 78.201 264.826C94.2763 271.023 121 250.669 121 250.669L111.886 81Z" fill="#0094C6"/>
<path d="M106.656 100.767V81.0323L111.874 81L150 105.614L141.727 240.472C141.727 240.472 131.936 285.463 117.084 284.996C102.233 284.53 90.7814 124.14 106.656 100.767Z" fill="#2F2E41"/>
<path d="M137.977 108.744L149.76 105C149.76 105 158.484 107.708 158.484 117.028C158.484 126.348 166 258.762 166 258.762L142.123 261L137 193.659L137.977 108.744Z" fill="#2F2E41"/>
<path d="M69.4383 93.9407L71.8909 81.065L64.8498 80L39.3582 90.3264C39.3582 90.3264 16.4157 260.196 26.6124 265.359C36.809 270.523 43.6938 266.522 43.6938 266.522C43.6938 266.522 77.2318 141.236 71.2957 124.3L69.4383 93.9407Z" fill="#2F2E41"/>
<path d="M59 92.5122L54.5811 90.5902C54.5811 90.5902 41.6107 84.1677 34.2518 97.1369C26.8929 110.106 1 254.997 1 254.997L22.3049 259L38.2327 206.856L59 92.5122Z" fill="#2F2E41"/>
</svg>
